<svg fill="#1A1A1A" xmlns="http://www.w3.org/2000/svg"  viewBox="0 0 48 48" width="48px" height="48px"><path d="M 11.5 6 C 8.4802259 6 6 8.4802259 6 11.5 L 6 36.5 C 6 39.519774 8.4802259 42 11.5 42 L 36.5 42 C 39.519774 42 42 39.519774 42 36.5 L 42 11.5 C 42 8.4802259 39.519774 6 36.5 6 L 11.5 6 z M 12.890625 17 L 15.529297 17 C 16.189297 17 16.449219 17.290312 16.699219 18.070312 C 17.879219 22.000312 19.629531 25 20.519531 25 C 20.849531 25 21 24.840938 21 23.960938 L 21 20.339844 C 20.9 18.469844 20 18.310625 20 17.640625 C 20 17.320625 20.209141 17 20.619141 17 L 25.269531 17 C 25.829531 17 26 17.319766 26 18.009766 L 26 23.199219 C 26 23.789219 26.449141 24 26.619141 24 C 26.949141 24 27.259141 24.020859 27.869141 23.380859 C 29.749141 21.160859 31.390625 17.800781 31.390625 17.800781 C 31.560625 17.400781 31.869297 17 32.529297 17 L 35.150391 17 C 35.740391 17 35.98 17.259141 36 17.619141 C 36.01 17.749141 35.979453 17.889062 35.939453 18.039062 C 35.609453 19.629062 32.25 24.350625 32.25 24.390625 C 32.1 24.640625 32.01 24.82 32 25 C 31.99 25.18 32.06 25.359141 32.25 25.619141 C 32.53 26.019141 33.13 26.76 33.75 27.5 C 34.86 28.84 35.749453 30.250078 35.939453 30.830078 C 35.989453 30.980078 36 31.12 36 31.25 C 35.99 31.75 35.639297 32 35.029297 32 L 32.410156 32 C 31.420156 32 31.100859 31.02 29.380859 29 C 27.880859 27.25 27.100703 27 26.720703 27 C 26.180703 27 26 27.129688 26 27.929688 L 26 30.910156 C 26 31.570156 25.830391 32 24.150391 32 C 21.380391 32 18.250859 30.120859 15.880859 26.880859 C 12.600859 22.390859 12 18.499531 12 17.769531 C 12 17.369531 12.130625 17 12.890625 17 z"/></svg>